<svg xmlns="http://www.w3.org/2000/svg" width="640" height="360" viewBox="0 0 640 360" role="img" aria-labelledby="title desc">
  <title id="title">20 oz. Travel Mugs</title>
  <desc id="desc">Generated product line image for 20 oz. Travel Mugs.</desc>
  <defs>
    <linearGradient id="bg" x1="0" x2="1" y1="0" y2="1">
      <stop stop-color="#101214" offset="0"/>
      <stop stop-color="#25282c" offset="1"/>
    </linearGradient>
    <radialGradient id="glow" cx="70%" cy="25%" r="55%">
      <stop stop-color="#ff6b00" stop-opacity="0.28" offset="0"/>
      <stop stop-color="#ff6b00" stop-opacity="0" offset="1"/>
    </radialGradient>
    <filter id="shadow" x="-20%" y="-20%" width="140%" height="140%">
      <feDropShadow dx="0" dy="18" stdDeviation="16" flood-color="#000" flood-opacity="0.45"/>
    </filter>
  </defs>
  <rect width="640" height="360" fill="url(#bg)"/>
  <rect width="640" height="360" fill="url(#glow)"/>
  <path d="M 0 286 C 142 244 246 320 370 282 C 502 241 568 266 640 230 V 360 H 0 Z" fill="#ffffff" opacity="0.07"/>
  <g filter="url(#shadow)">
    
    <ellipse cx="205" cy="76" rx="67.5" ry="13.75" fill="#eef2f5" opacity="0.95"/>
    <path d="M 154 96 L 256 96 L 238 281 Q 205 296 172 281 Z" fill="#34393f"/>
    <path d="M 164.5 106 L 205 104 L 194.5 265 L 176.5 277 Z" fill="#fff" opacity="0.16"/>
    <rect x="172" y="166" width="66" height="42.5" rx="12" fill="#ff6b00" opacity="0.82"/>
    <rect x="184" y="245" width="42.00000000000001" height="6" rx="3" fill="#050505" opacity="0.35"/>
    <rect x="181" y="259" width="48" height="5" rx="2.5" fill="#050505" opacity="0.28"/>
  <path d="M 282 162 C 360 126 374 236 292 226" fill="none" stroke="#d5dde6" stroke-width="20" opacity="0.7"/>
    <ellipse cx="421" cy="98.8" rx="50.4" ry="11.55" fill="#eef2f5" opacity="0.95"/>
    <path d="M 382.92 115.6 L 459.08 115.6 L 445.64 271 Q 421 283.6 396.36 271 Z" fill="#d5dde6"/>
    <path d="M 390.76 125.6 L 421 123.6 L 413.15999999999997 255 L 399.72 267 Z" fill="#fff" opacity="0.16"/>
    <rect x="396.36" y="174.4" width="49.28" height="35.7" rx="12" fill="#ff6b00" opacity="0.82"/>
    <rect x="405.32" y="235" width="31.360000000000003" height="6" rx="3" fill="#050505" opacity="0.35"/>
    <rect x="403.08" y="249" width="35.84" height="5" rx="2.5" fill="#050505" opacity="0.28"/>
  
  </g>
  <path d="M 44 310 H 596" stroke="#ff6b00" stroke-width="4" stroke-linecap="round" opacity="0.95"/>
</svg>
