<svg xmlns="http://www.w3.org/2000/svg" width="640" height="360" viewBox="0 0 640 360" role="img" aria-labelledby="title desc">
  <title id="title">32 oz. Water Bottles</title>
  <desc id="desc">Generated product line image for 32 oz. Water Bottles.</desc>
  <defs>
    <linearGradient id="bg" x1="0" x2="1" y1="0" y2="1">
      <stop stop-color="#101214" offset="0"/>
      <stop stop-color="#25282c" offset="1"/>
    </linearGradient>
    <radialGradient id="glow" cx="70%" cy="25%" r="55%">
      <stop stop-color="#ff6b00" stop-opacity="0.28" offset="0"/>
      <stop stop-color="#ff6b00" stop-opacity="0" offset="1"/>
    </radialGradient>
    <filter id="shadow" x="-20%" y="-20%" width="140%" height="140%">
      <feDropShadow dx="0" dy="18" stdDeviation="16" flood-color="#000" flood-opacity="0.45"/>
    </filter>
  </defs>
  <rect width="640" height="360" fill="url(#bg)"/>
  <rect width="640" height="360" fill="url(#glow)"/>
  <path d="M 0 286 C 142 244 246 320 370 282 C 502 241 568 266 640 230 V 360 H 0 Z" fill="#ffffff" opacity="0.07"/>
  <g filter="url(#shadow)">
    
    <rect x="200" y="63.72" width="42.00000000000001" height="36.68000000000001" rx="8" fill="#e7ecef"/>
    <path d="M 182 100.4 Q 221 79.44 260 100.4 L 254 283.8 Q 221 304.76 188 283.8 Z" fill="#2d3338"/>
    <rect x="192.5" y="168.52" width="57" height="47.16" rx="12" fill="#ff6b00" opacity="0.85"/>
    <path d="M 197 110.88 L 218 103.02 L 210.5 270.7" stroke="#fff" stroke-width="18" opacity="0.13"/>
  
    <rect x="386.8" y="78.16" width="36.400000000000006" height="33.040000000000006" rx="8" fill="#e7ecef"/>
    <path d="M 371.2 111.2 Q 405 92.32 438.8 111.2 L 433.6 276.4 Q 405 295.28 376.4 276.4 Z" fill="#d5dde6"/>
    <rect x="380.3" y="172.56" width="49.4" height="42.48" rx="12" fill="#ff6b00" opacity="0.85"/>
    <path d="M 384.2 120.64 L 402.4 113.56 L 395.9 264.6" stroke="#fff" stroke-width="18" opacity="0.13"/>
  
  </g>
  <path d="M 44 310 H 596" stroke="#ff6b00" stroke-width="4" stroke-linecap="round" opacity="0.95"/>
</svg>
